# xmcd
#
# Track frame offsets: 
#        150
#        16444
#        40691
#        61471
#        81838
#        100472
#        124941
#        143628
#        170949
#        193118
#        209017
#        230233
#        248979
#        267560
#        297173
#        312522
#
# Disc length: 4381 seconds
#
# Revision: 0
# Processed by: cddbd v1.5.2PL0 Copyright (c) Steve Scherf et al.
# Submitted via: ExactAudioCopy v0.95a5
#
DISCID=02111b10
DTITLE=Various Artist - 歌声30年
DYEAR=1900
DGENRE=Beat
TTITLE0=晚秋
TTITLE1=懂你
TTITLE2=小芳
TTITLE3=老乡
TTITLE4=大花轿
TTITLE5=月亮船
TTITLE6=祝你平安
TTITLE7=同一首歌
TTITLE8=常回家看看
TTITLE9=山路十八弯
TTITLE10=轻轻的告诉你
TTITLE11=牵挂你的人是我
TTITLE12=永远到底有多远
TTITLE13=你在他乡还好吗
TTITLE14=冬天里的一把火
TTITLE15=说句里心话
EXTD=
EXTT0=
EXTT1=
EXTT2=
EXTT3=
EXTT4=
EXTT5=
EXTT6=
EXTT7=
EXTT8=
EXTT9=
EXTT10=
EXTT11=
EXTT12=
EXTT13=
EXTT14=
EXTT15=
PLAYORDER=
